Coordinates
version=1
nRows=24
nColumns=24
inDegrees=yes

Units are S.I. units (second, meters, Newtons, ...)
Angles are in degrees.

endheader
time	pelvis_tilt	pelvis_list	pelvis_rotation	pelvis_tx	pelvis_ty	pelvis_tz	hip_flexion_r	hip_adduction_r	hip_rotation_r	knee_angle_r	ankle_angle_r	subtalar_angle_r	mtp_angle_r	hip_flexion_l	hip_adduction_l	hip_rotation_l	knee_angle_l	ankle_angle_l	subtalar_angle_l	mtp_angle_l	lumbar_extension	lumbar_bending	lumbar_rotation
      1.39566667	      3.83762236	      4.81056098	     -5.06897726	      0.28544301	      1.01980088	      0.28011704	     10.68042408	     -8.66941215	     -1.86169714	    -69.03576157	     -4.71777794	    -12.09773032	      1.15168797	      2.69678831	     10.11500473	      4.13100315	    -12.02959168	      4.11793445	    -17.30745102	     -8.09890150	    -15.85196411	      1.05495033	     -2.03655844
      1.39983333	      3.86089441	      4.58628846	     -5.06524856	      0.29030191	      1.02079798	      0.27977355	     11.18874080	     -8.38073912	     -1.94345383	    -68.74643592	     -4.12036093	    -12.43518991	      0.82409548	      2.09518725	      9.91709793	      4.24622727	    -11.51564950	      4.05112690	    -17.36930006	     -8.19634681	    -15.89745211	      1.39317503	     -2.31755415
      1.40400000	      3.85625318	      4.33096494	     -5.08542575	      0.29515883	      1.02173595	      0.27947677	     11.71422295	     -8.03595379	     -1.98340449	    -68.39126717	     -3.57838302	    -12.67750914	      0.65723530	      1.53138461	      9.67676844	      4.29148974	    -11.02125887	      4.04595246	    -17.36779695	     -8.24838852	    -15.91504662	      1.75204155	     -2.45609483
      1.40816667	      3.87468136	      4.09870060	     -5.08955934	      0.30000052	      1.02263000	      0.27915765	     12.20260755	     -7.72450458	     -2.04825019	    -67.99526140	     -3.01926125	    -12.95029072	      0.47621902	      0.94618787	      9.46407388	      4.35497494	    -10.52649738	      4.01749662	    -17.37796725	     -8.30622425	    -15.95946136	      2.08990247	     -2.67122712
      1.41233333	      3.87829161	      3.86591290	     -5.08676357	      0.30483103	      1.02348342	      0.27883361	     12.69121924	     -7.40740098	     -2.11729071	    -67.54188203	     -2.48008466	    -13.21002878	      0.29035073	      0.38118971	      9.24882893	      4.41542079	    -10.03854757	      3.98526205	    -17.38942863	     -8.36623711	    -15.98827729	      2.43173261	     -2.87362815
      1.41650000	      3.87900497	      3.63705513	     -5.08258122	      0.30965137	      1.02427850	      0.27851850	     13.17216213	     -7.09108431	     -2.18399658	    -67.04442506	     -1.94591218	    -13.44343441	      0.12353306	     -0.17527077	      9.03512269	      4.46113083	     -9.55831176	      3.95734596	    -17.39060314	     -8.42161407	    -16.01347699	      2.76724682	     -3.05842787
      1.42066667	      3.83654975	      3.41821568	     -5.06583073	      0.31444900	      1.02495242	      0.27820285	     13.68915460	     -6.77824102	     -2.25524851	    -66.50764834	     -1.36899753	    -13.67273309	      0.05324632	     -0.65765652	      8.82428741	      4.46803079	     -9.12980252	      3.93899359	    -17.34288071	     -8.44709990	    -15.99716821	      3.06441333	     -3.15378511
      1.42483333	      3.86603917	      3.18312508	     -5.05101625	      0.31927067	      1.02570867	      0.27787423	     14.10072703	     -6.45824068	     -2.33628332	    -65.89152709	     -0.92094875	    -13.87162222	     -0.13770767	     -1.25476835	      8.60641226	      4.54458768	     -8.63042564	      3.93108576	    -17.35197649	     -8.50985616	    -16.04806443	      3.43291755	     -3.45032619
      1.42900000	      3.86824287	      2.97709518	     -5.03685296	      0.32405540	      1.02635168	      0.27757020	     14.54172514	     -6.16143639	     -2.40282011	    -65.25148423	     -0.41186467	    -14.03459535	     -0.35449815	     -1.79797530	      8.41397967	      4.58942230	     -8.16806438	      3.90344869	    -17.34593783	     -8.58198473	    -16.07916576	      3.74232318	     -3.66102316
      1.43316667	      3.88958302	      2.78067735	     -4.99943698	      0.32884132	      1.02696925	      0.27723919	     14.94088310	     -5.88539939	     -2.49996922	    -64.56204911	      0.11815551	    -14.22720713	     -0.77690068	     -2.35349627	      8.23128867	      4.63144994	     -7.72006460	      3.85721031	    -17.35233410	     -8.71816742	    -16.12300093	      4.02922010	     -3.91389623
      1.43733333	      3.82025962	      2.58238515	     -4.98998967	      0.33362546	      1.02742039	      0.27695640	     15.43616799	     -5.58089762	     -2.54344644	    -63.83301265	      0.60286832	    -14.30758224	     -0.85543523	     -2.79223121	      8.03673991	      4.60842288	     -7.31027820	      3.87038069	    -17.28949743	     -8.74536249	    -16.07240820	      4.31765837	     -3.95845191
      1.44150000	      3.79082570	      2.39734667	     -4.96948140	      0.33838445	      1.02785838	      0.27666126	     15.87452762	     -5.30099108	     -2.60272530	    -63.06120236	      1.07948309	    -14.39926562	     -0.93601877	     -3.27280880	      7.85918611	      4.60136137	     -6.89538935	      3.87684159	    -17.22356409	     -8.77278786	    -16.07564728	      4.60016075	     -4.08515635
      1.44566667	      3.81380061	      2.20207739	     -4.94055994	      0.34317426	      1.02834782	      0.27637979	     16.22246387	     -5.01538485	     -2.67469006	    -62.21444384	      1.51398831	    -14.45874063	     -1.04656803	     -3.81605873	      7.67288433	      4.59547555	     -6.47395436	      3.88583389	    -17.18017526	     -8.80905930	    -16.10598837	      4.87064127	     -4.28583007
      1.44983333	      3.82753142	      2.05436361	     -4.91737038	      0.34793088	      1.02871869	      0.27608223	     16.59193851	     -4.78813851	     -2.73707507	    -61.36315008	      1.92343371	    -14.48738264	     -1.25776510	     -4.35818053	      7.53967771	      4.64451265	     -6.01867569	      3.89633368	    -17.15360835	     -8.87511947	    -16.15150486	      5.13373313	     -4.57023155
      1.45400000	      3.84890528	      1.89438512	     -4.87805385	      0.35267904	      1.02908535	      0.27580587	     16.92215303	     -4.54011780	     -2.80335191	    -60.44639787	      2.37046827	    -14.53771059	     -1.58300808	     -4.88777681	      7.38908809	      4.67131423	     -5.60773428	      3.86660146	    -17.12861537	     -8.97597023	    -16.20984757	      5.36843079	     -4.78389147
      1.45816667	      3.76887062	      1.75699599	     -4.82143122	      0.35745761	      1.02925874	      0.27548244	     17.35325311	     -4.32153428	     -2.88859884	    -59.50240629	      2.79924459	    -14.46026285	     -4.30812643	     -5.31519374	      7.25954711	      4.80600033	     -5.18245554	      3.79482554	    -17.28747870	     -9.78476936	    -16.11111670	      5.61964644	     -5.02904106
      1.46233333	      3.79402331	      1.60925199	     -4.82325497	      0.36221849	      1.02950563	      0.27528160	     17.65915513	     -4.07418073	     -2.90495552	    -58.50427461	      3.17214624	    -14.44324811	     -4.34505855	     -5.83591255	      7.12004547	      4.70979733	     -4.79631150	      3.88436829	    -17.11591400	     -9.79082118	    -16.17809110	      5.82561302	     -5.08141301
      1.46650000	      3.77277108	      1.48919735	     -4.79540777	      0.36698008	      1.02962844	      0.27504172	     18.00030417	     -3.86581562	     -2.94926209	    -57.47223703	      3.52223228	    -14.40716832	     -4.38248925	     -6.30020312	      7.00648490	      4.69247785	     -4.41963535	      3.92384390	    -17.03055339	     -9.79825834	    -16.17401765	      6.01701398	     -5.22504665
      1.47066667	      3.79266167	      1.36064542	     -4.76269810	      0.37174463	      1.02979384	      0.27481511	     18.26847972	     -3.65096969	     -2.99774166	    -56.37504614	      3.83953164	    -14.37233316	     -4.42550878	     -6.81735934	      6.88556652	      4.69614703	     -4.02635222	      3.94126339	    -16.97378503	     -9.80799630	    -16.22047276	      6.22009626	     -5.39663400
      1.47483333	      3.75996376	      1.25854791	     -4.72994627	      0.37650175	      1.02980408	      0.27460251	     18.58756931	     -3.45835037	     -3.03438860	    -55.25549761	      4.16268570	    -14.31549578	     -4.44974825	     -7.25832894	      6.78831767	      4.68987295	     -3.66965299	      3.94748610	    -16.92696486	     -9.81460830	    -16.20530499	      6.38849093	     -5.51231193
      1.47900000	      3.74464888	      1.15594314	     -4.69735533	      0.38127146	      1.02979278	      0.27438922	     18.86659751	     -3.26927279	     -3.07324855	    -54.08536589	      4.43463789	    -14.25976151	     -4.47605444	     -7.72910213	      6.69213347	      4.70182755	     -3.29127308	      3.96376051	    -16.88831648	     -9.82153617	    -16.20766019	      6.56086007	     -5.66129526
      1.48316667	      3.78041508	      1.06457517	     -4.67089198	      0.38603989	      1.02979976	      0.27419517	     19.07357638	     -3.09858963	     -3.11294965	    -52.87081144	      4.64675342	    -14.21837842	     -4.52354550	     -8.27221801	      6.61205161	      4.74271797	     -2.87432787	      3.97955089	    -16.88148246	     -9.83366316	    -16.26910944	      6.72502180	     -5.88312211
      1.48733333	      3.72845653	      0.98668198	     -4.63945039	      0.39081054	      1.02963690	      0.27402178	     19.36087341	     -2.93057912	     -3.14466102	    -51.62490683	      4.89193786	    -14.15567167	     -4.54758234	     -8.69370091	      6.53612456	      4.74809171	     -2.51203109	      3.98094558	    -16.84184852	     -9.84092563	    -16.24021046	      6.85867192	     -5.98680164
      1.49150000	      3.73131868	      0.90414170	     -4.61092051	      0.39558634	      1.02951459	      0.27385591	     19.55833027	     -2.76027670	     -3.16918846	    -50.31162671	      5.07068068	    -14.10065080	     -4.57887139	     -9.18010818	      6.46096621	      4.76752943	     -2.14206508	      3.98818746	    -16.82131327	     -9.84944932	    -16.24825580	      7.01358800	     -6.14274041
